<?xml version="1.0" encoding="UTF-8" standalone="no"?><svg width="842" height="467" viewBox="0 0 842 467" fill="none" xmlns="http://www.w3.org/2000/svg">
<path d="M-475.841 133.495C-394.318 50.8928 -346.938 97.6546 -265.414 15.0528C-183.891 -67.5491 -231.271 -114.311 -149.772 -196.889C-68.2718 -279.467 -20.8679 -232.729 60.6554 -315.331C142.179 -397.933 94.7982 -444.694 176.321 -527.296C257.845 -609.898 305.225 -563.136 386.772 -645.762C468.319 -728.387 420.915 -775.125 502.438 -857.727" stroke="#5F5F5F" stroke-opacity="0.35" stroke-width="2" stroke-miterlimit="10"/>
<path d="M-184.215 419.857C-102.692 337.255 -55.3112 384.017 26.2121 301.415C107.735 218.813 60.355 172.052 141.855 89.4737C223.355 6.89563 270.759 53.6336 352.282 -28.9682C433.805 -111.57 386.425 -158.332 467.948 -240.934C549.471 -323.535 596.852 -276.774 678.398 -359.399C759.945 -442.025 712.541 -488.763 794.065 -571.365" stroke="#5F5F5F" stroke-opacity="0.35" stroke-width="2" stroke-miterlimit="10"/>
<path d="M-332.534 285.993C-251.011 203.391 -203.63 250.153 -122.107 167.551C-40.5839 84.949 -87.9643 38.1872 -6.46449 -44.3908C75.0353 -126.969 122.439 -80.2309 203.962 -162.833C285.486 -245.435 238.105 -292.196 319.629 -374.798C401.152 -457.4 448.532 -410.638 530.079 -493.264C611.626 -575.889 564.222 -622.627 645.745 -705.229" stroke="#5F5F5F" stroke-opacity="0.35" stroke-width="2" stroke-miterlimit="10"/>
<path d="M-495.65 106.491C-414.127 23.8889 -366.747 70.6507 -285.223 -11.9511C-203.7 -94.553 -251.081 -141.315 -169.581 -223.893C-88.0809 -306.471 -40.677 -259.733 40.8463 -342.335C122.37 -424.936 74.9891 -471.698 156.512 -554.3C238.036 -636.902 285.416 -590.14 366.963 -672.766C448.51 -755.391 401.106 -802.129 482.629 -884.731" stroke="#5F5F5F" stroke-opacity="0.35" stroke-width="2" stroke-miterlimit="10"/>
<path d="M-204.023 392.853C-122.5 310.251 -75.1198 357.013 6.40353 274.411C87.9268 191.81 40.5464 145.048 122.046 62.4698C203.546 -20.1083 250.95 26.6297 332.473 -55.9721C413.997 -138.574 366.616 -185.336 448.139 -267.937C529.663 -350.539 577.043 -303.778 658.59 -386.403C740.137 -469.029 692.733 -515.767 774.256 -598.368" stroke="#5F5F5F" stroke-opacity="0.35" stroke-width="2" stroke-miterlimit="10"/>
<path d="M-352.344 258.989C-270.82 176.387 -223.44 223.149 -141.917 140.547C-60.3935 57.9451 -107.774 11.1833 -26.2741 -71.3947C55.2258 -153.973 102.63 -107.235 184.153 -189.837C265.676 -272.438 218.296 -319.2 299.819 -401.802C381.342 -484.404 428.723 -437.642 510.269 -520.268C591.816 -602.893 544.412 -649.631 625.936 -732.233" stroke="#5F5F5F" stroke-opacity="0.35" stroke-width="2" stroke-miterlimit="10"/>
<path d="M-551.31 56.6027C-469.787 -25.9992 -422.406 20.7626 -340.883 -61.8392C-259.36 -144.441 -306.74 -191.203 -225.24 -273.781C-143.741 -356.359 -96.3367 -309.621 -14.8134 -392.223C66.7099 -474.825 19.3295 -521.586 100.853 -604.188C182.376 -686.79 229.756 -640.028 311.303 -722.654C392.85 -805.279 345.446 -852.017 426.969 -934.619" stroke="#5F5F5F" stroke-opacity="0.35" stroke-width="2" stroke-miterlimit="10"/>
<path d="M-259.683 352.686C-178.16 270.084 -130.779 316.846 -49.2561 234.244C32.2671 151.643 -15.1132 104.881 66.3866 22.3028C147.886 -60.2753 195.29 -13.5373 276.814 -96.1391C358.337 -178.741 310.956 -225.503 392.48 -308.104C474.003 -390.706 521.383 -343.945 602.93 -426.57C684.477 -509.196 637.073 -555.934 718.596 -638.535" stroke="#5F5F5F" stroke-opacity="0.35" stroke-width="2" stroke-miterlimit="10"/>
<path d="M-408.003 209.101C-326.48 126.499 -279.1 173.261 -197.576 90.6588C-116.053 8.05702 -163.434 -38.7047 -81.9337 -121.283C-0.433897 -203.861 46.97 -157.123 128.493 -239.725C210.017 -322.326 162.636 -369.088 244.159 -451.69C325.683 -534.292 373.063 -487.53 454.61 -570.156C536.157 -652.781 488.753 -699.519 570.276 -782.121" stroke="#5F5F5F" stroke-opacity="0.35" stroke-width="2" stroke-miterlimit="10"/>
<path d="M-452.151 156.875C-370.628 74.2736 -323.248 121.035 -241.724 38.4335C-160.201 -44.1683 -207.582 -90.9301 -126.082 -173.508C-44.5818 -256.086 2.82201 -209.348 84.3453 -291.95C165.869 -374.552 118.488 -421.314 200.011 -503.915C281.535 -586.517 328.915 -539.755 410.462 -622.381C492.009 -705.007 444.605 -751.745 526.128 -834.346" stroke="#5F5F5F" stroke-opacity="0.35" stroke-width="2" stroke-miterlimit="10"/>
<path d="M-308.845 309.374C-227.321 226.772 -179.941 273.534 -98.4178 190.932C-16.8945 108.33 -64.2749 61.5686 17.225 -21.0095C98.7248 -103.588 146.129 -56.8495 227.652 -139.451C309.175 -222.053 261.795 -268.815 343.318 -351.417C424.841 -434.019 472.222 -387.257 553.769 -469.882C635.315 -552.508 587.911 -599.246 669.435 -681.848" stroke="#5F5F5F" stroke-opacity="0.35" stroke-width="2" stroke-miterlimit="10"/>
<path d="M-575 33.2217C-493.477 -49.3801 -446.096 -2.61838 -364.573 -85.2202C-283.05 -167.822 -330.43 -214.584 -248.93 -297.162C-167.43 -379.74 -120.027 -333.002 -38.5033 -415.604C43.0199 -498.206 -4.36049 -544.967 77.1628 -627.569C158.686 -710.171 206.067 -663.409 287.613 -746.035C369.16 -828.66 321.756 -875.398 403.279 -958" stroke="#5F5F5F" stroke-opacity="0.35" stroke-width="2" stroke-miterlimit="10"/>
<path d="M-283.373 329.305C-201.85 246.703 -154.469 293.465 -72.9461 210.863C8.57721 128.261 -38.8032 81.4995 42.6966 -1.07857C124.196 -83.6566 171.6 -36.9186 253.124 -119.52C334.647 -202.122 287.266 -248.884 368.79 -331.486C450.313 -414.088 497.693 -367.326 579.24 -449.951C660.787 -532.577 613.383 -579.315 694.906 -661.917" stroke="#5F5F5F" stroke-opacity="0.35" stroke-width="2" stroke-miterlimit="10"/>
<path d="M-431.693 185.72C-350.17 103.118 -302.79 149.88 -221.266 67.2779C-139.743 -15.324 -187.123 -62.0857 -105.624 -144.664C-24.1238 -227.242 23.28 -180.504 104.803 -263.106C186.327 -345.707 138.946 -392.469 220.469 -475.071C301.993 -557.673 349.373 -510.911 430.92 -593.537C512.467 -676.162 465.063 -722.9 546.586 -805.502" stroke="#5F5F5F" stroke-opacity="0.35" stroke-width="2" stroke-miterlimit="10"/>
<path d="M-519.34 83.1095C-437.817 0.507683 -390.437 47.2694 -308.913 -35.3324C-227.39 -117.934 -274.77 -164.696 -193.271 -247.274C-111.771 -329.852 -64.367 -283.114 17.1563 -365.716C98.6796 -448.318 51.2992 -495.079 132.822 -577.681C214.346 -660.283 261.726 -613.521 343.273 -696.147C424.82 -778.772 377.416 -825.51 458.939 -908.112" stroke="#5F5F5F" stroke-opacity="0.35" stroke-width="2" stroke-miterlimit="10"/>
<path d="M-227.713 369.472C-146.19 286.87 -98.8097 333.632 -17.2864 251.03C64.2369 168.428 16.8565 121.667 98.3563 39.0885C179.856 -43.4895 227.26 3.24849 308.783 -79.3533C390.307 -161.955 342.926 -208.717 424.449 -291.319C505.973 -373.92 553.353 -327.159 634.9 -409.784C716.447 -492.41 669.043 -539.148 750.566 -621.75" stroke="#5F5F5F" stroke-opacity="0.35" stroke-width="2" stroke-miterlimit="10"/>
<path d="M-376.034 235.608C-294.51 153.006 -247.13 199.768 -165.607 117.166C-84.0834 34.5641 -131.464 -12.1977 -49.964 -94.7757C31.5358 -177.354 78.9397 -130.616 160.463 -213.218C241.986 -295.819 194.606 -342.581 276.129 -425.183C357.652 -507.785 405.033 -461.023 486.58 -543.649C568.126 -626.274 520.722 -673.012 602.246 -755.614" stroke="#5F5F5F" stroke-opacity="0.35" stroke-width="2" stroke-miterlimit="10"/>
</svg>
