<?xml version="1.0" encoding="UTF-8" standalone="no"?><svg width="158" height="110" viewBox="0 0 158 110" fill="none" xmlns="http://www.w3.org/2000/svg">
<g opacity="0.7">
<circle cx="1.02804" cy="108.972" r="1.02804" transform="rotate(-90 1.02804 108.972)" fill="#5F5F5F"/>
<circle cx="1.02804" cy="60.9969" r="1.02804" transform="rotate(-90 1.02804 60.9969)" fill="#5F5F5F"/>
<circle cx="1.02804" cy="72.9906" r="1.02804" transform="rotate(-90 1.02804 72.9906)" fill="#5F5F5F"/>
<circle cx="1.02804" cy="84.9844" r="1.02804" transform="rotate(-90 1.02804 84.9844)" fill="#5F5F5F"/>
<circle cx="1.02804" cy="96.9782" r="1.02804" transform="rotate(-90 1.02804 96.9782)" fill="#5F5F5F"/>
<circle cx="13.0217" cy="108.972" r="1.02804" transform="rotate(-90 13.0217 108.972)" fill="#5F5F5F"/>
<circle cx="13.0217" cy="60.9969" r="1.02804" transform="rotate(-90 13.0217 60.9969)" fill="#5F5F5F"/>
<circle cx="25.0153" cy="72.9906" r="1.02804" transform="rotate(-90 25.0153 72.9906)" fill="#5F5F5F"/>
<circle cx="13.0217" cy="84.9844" r="1.02804" transform="rotate(-90 13.0217 84.9844)" fill="#5F5F5F"/>
<circle cx="13.0217" cy="96.9782" r="1.02804" transform="rotate(-90 13.0217 96.9782)" fill="#5F5F5F"/>
<circle cx="25.0153" cy="108.972" r="1.02804" transform="rotate(-90 25.0153 108.972)" fill="#5F5F5F"/>
<circle cx="25.0153" cy="60.9969" r="1.02804" transform="rotate(-90 25.0153 60.9969)" fill="#5F5F5F"/>
<circle cx="13.0217" cy="72.9906" r="1.02804" transform="rotate(-90 13.0217 72.9906)" fill="#5F5F5F"/>
<circle cx="25.0153" cy="84.9844" r="1.02804" transform="rotate(-90 25.0153 84.9844)" fill="#5F5F5F"/>
<circle cx="25.0153" cy="96.9782" r="1.02804" transform="rotate(-90 25.0153 96.9782)" fill="#5F5F5F"/>
<circle cx="37.0095" cy="108.972" r="1.02804" transform="rotate(-90 37.0095 108.972)" fill="#5F5F5F"/>
<circle cx="37.0095" cy="60.9969" r="1.02804" transform="rotate(-90 37.0095 60.9969)" fill="#5F5F5F"/>
<circle cx="37.0095" cy="72.9906" r="1.02804" transform="rotate(-90 37.0095 72.9906)" fill="#5F5F5F"/>
<circle cx="37.0095" cy="84.9844" r="1.02804" transform="rotate(-90 37.0095 84.9844)" fill="#5F5F5F"/>
<circle cx="37.0095" cy="96.9782" r="1.02804" transform="rotate(-90 37.0095 96.9782)" fill="#5F5F5F"/>
<circle cx="49.0031" cy="108.972" r="1.02804" transform="rotate(-90 49.0031 108.972)" fill="#5F5F5F"/>
<circle cx="49.0031" cy="60.9969" r="1.02804" transform="rotate(-90 49.0031 60.9969)" fill="#5F5F5F"/>
<circle cx="49.0031" cy="72.9906" r="1.02804" transform="rotate(-90 49.0031 72.9906)" fill="#5F5F5F"/>
<circle cx="49.0031" cy="84.9844" r="1.02804" transform="rotate(-90 49.0031 84.9844)" fill="#5F5F5F"/>
<circle cx="49.0031" cy="96.9782" r="1.02804" transform="rotate(-90 49.0031 96.9782)" fill="#5F5F5F"/>
<circle cx="60.9968" cy="108.972" r="1.02804" transform="rotate(-90 60.9968 108.972)" fill="#5F5F5F"/>
<circle cx="60.9968" cy="60.9969" r="1.02804" transform="rotate(-90 60.9968 60.9969)" fill="#5F5F5F"/>
<circle cx="60.9968" cy="72.9906" r="1.02804" transform="rotate(-90 60.9968 72.9906)" fill="#5F5F5F"/>
<circle cx="60.9968" cy="84.9844" r="1.02804" transform="rotate(-90 60.9968 84.9844)" fill="#5F5F5F"/>
<circle cx="60.9968" cy="96.9782" r="1.02804" transform="rotate(-90 60.9968 96.9782)" fill="#5F5F5F"/>
<circle cx="72.9904" cy="108.972" r="1.02804" transform="rotate(-90 72.9904 108.972)" fill="#5F5F5F"/>
<circle cx="72.9904" cy="60.9969" r="1.02804" transform="rotate(-90 72.9904 60.9969)" fill="#5F5F5F"/>
<circle cx="72.9904" cy="72.9906" r="1.02804" transform="rotate(-90 72.9904 72.9906)" fill="#5F5F5F"/>
<circle cx="72.9904" cy="84.9844" r="1.02804" transform="rotate(-90 72.9904 84.9844)" fill="#5F5F5F"/>
<circle cx="72.9904" cy="96.9782" r="1.02804" transform="rotate(-90 72.9904 96.9782)" fill="#5F5F5F"/>
<circle cx="1.02804" cy="49.0031" r="1.02804" transform="rotate(-90 1.02804 49.0031)" fill="#5F5F5F"/>
<circle cx="1.02804" cy="1.02805" r="1.02804" transform="rotate(-90 1.02804 1.02805)" fill="#5F5F5F"/>
<circle cx="1.02804" cy="13.0218" r="1.02804" transform="rotate(-90 1.02804 13.0218)" fill="#5F5F5F"/>
<circle cx="1.02804" cy="25.0156" r="1.02804" transform="rotate(-90 1.02804 25.0156)" fill="#5F5F5F"/>
<circle cx="1.02804" cy="37.0093" r="1.02804" transform="rotate(-90 1.02804 37.0093)" fill="#5F5F5F"/>
<circle cx="13.0217" cy="49.0032" r="1.02804" transform="rotate(-90 13.0217 49.0032)" fill="#5F5F5F"/>
<circle cx="13.0217" cy="1.02805" r="1.02804" transform="rotate(-90 13.0217 1.02805)" fill="#5F5F5F"/>
<circle cx="25.0153" cy="13.0218" r="1.02804" transform="rotate(-90 25.0153 13.0218)" fill="#5F5F5F"/>
<circle cx="13.0217" cy="25.0156" r="1.02804" transform="rotate(-90 13.0217 25.0156)" fill="#5F5F5F"/>
<circle cx="13.0217" cy="37.0094" r="1.02804" transform="rotate(-90 13.0217 37.0094)" fill="#5F5F5F"/>
<circle cx="25.0153" cy="49.0032" r="1.02804" transform="rotate(-90 25.0153 49.0032)" fill="#5F5F5F"/>
<circle cx="25.0153" cy="1.02805" r="1.02804" transform="rotate(-90 25.0153 1.02805)" fill="#5F5F5F"/>
<circle cx="13.0217" cy="13.0218" r="1.02804" transform="rotate(-90 13.0217 13.0218)" fill="#5F5F5F"/>
<circle cx="25.0153" cy="25.0156" r="1.02804" transform="rotate(-90 25.0153 25.0156)" fill="#5F5F5F"/>
<circle cx="25.0153" cy="37.0094" r="1.02804" transform="rotate(-90 25.0153 37.0094)" fill="#5F5F5F"/>
<circle cx="37.0095" cy="49.0032" r="1.02804" transform="rotate(-90 37.0095 49.0032)" fill="#5F5F5F"/>
<circle cx="37.0095" cy="1.02805" r="1.02804" transform="rotate(-90 37.0095 1.02805)" fill="#5F5F5F"/>
<circle cx="37.0095" cy="13.0218" r="1.02804" transform="rotate(-90 37.0095 13.0218)" fill="#5F5F5F"/>
<circle cx="37.0095" cy="25.0156" r="1.02804" transform="rotate(-90 37.0095 25.0156)" fill="#5F5F5F"/>
<circle cx="37.0095" cy="37.0094" r="1.02804" transform="rotate(-90 37.0095 37.0094)" fill="#5F5F5F"/>
<circle cx="49.0031" cy="49.0032" r="1.02804" transform="rotate(-90 49.0031 49.0032)" fill="#5F5F5F"/>
<circle cx="49.0031" cy="1.02805" r="1.02804" transform="rotate(-90 49.0031 1.02805)" fill="#5F5F5F"/>
<circle cx="49.0031" cy="13.0218" r="1.02804" transform="rotate(-90 49.0031 13.0218)" fill="#5F5F5F"/>
<circle cx="49.0031" cy="25.0156" r="1.02804" transform="rotate(-90 49.0031 25.0156)" fill="#5F5F5F"/>
<circle cx="49.0031" cy="37.0094" r="1.02804" transform="rotate(-90 49.0031 37.0094)" fill="#5F5F5F"/>
<circle cx="60.9968" cy="49.0032" r="1.02804" transform="rotate(-90 60.9968 49.0032)" fill="#5F5F5F"/>
<circle cx="60.9968" cy="1.02805" r="1.02804" transform="rotate(-90 60.9968 1.02805)" fill="#5F5F5F"/>
<circle cx="60.9968" cy="13.0218" r="1.02804" transform="rotate(-90 60.9968 13.0218)" fill="#5F5F5F"/>
<circle cx="60.9968" cy="25.0156" r="1.02804" transform="rotate(-90 60.9968 25.0156)" fill="#5F5F5F"/>
<circle cx="60.9968" cy="37.0094" r="1.02804" transform="rotate(-90 60.9968 37.0094)" fill="#5F5F5F"/>
<circle cx="72.9904" cy="49.0032" r="1.02804" transform="rotate(-90 72.9904 49.0032)" fill="#5F5F5F"/>
<circle cx="72.9904" cy="1.02805" r="1.02804" transform="rotate(-90 72.9904 1.02805)" fill="#5F5F5F"/>
<circle cx="72.9904" cy="13.0218" r="1.02804" transform="rotate(-90 72.9904 13.0218)" fill="#5F5F5F"/>
<circle cx="72.9904" cy="25.0156" r="1.02804" transform="rotate(-90 72.9904 25.0156)" fill="#5F5F5F"/>
<circle cx="72.9904" cy="37.0094" r="1.02804" transform="rotate(-90 72.9904 37.0094)" fill="#5F5F5F"/>
<circle cx="84.9846" cy="108.972" r="1.02804" transform="rotate(-90 84.9846 108.972)" fill="#5F5F5F"/>
<circle cx="84.9846" cy="60.9969" r="1.02804" transform="rotate(-90 84.9846 60.9969)" fill="#5F5F5F"/>
<circle cx="84.9846" cy="72.9906" r="1.02804" transform="rotate(-90 84.9846 72.9906)" fill="#5F5F5F"/>
<circle cx="84.9846" cy="84.9844" r="1.02804" transform="rotate(-90 84.9846 84.9844)" fill="#5F5F5F"/>
<circle cx="84.9846" cy="96.9782" r="1.02804" transform="rotate(-90 84.9846 96.9782)" fill="#5F5F5F"/>
<circle cx="96.9782" cy="108.972" r="1.02804" transform="rotate(-90 96.9782 108.972)" fill="#5F5F5F"/>
<circle cx="96.9782" cy="60.9969" r="1.02804" transform="rotate(-90 96.9782 60.9969)" fill="#5F5F5F"/>
<circle cx="108.972" cy="72.9906" r="1.02804" transform="rotate(-90 108.972 72.9906)" fill="#5F5F5F"/>
<circle cx="96.9782" cy="84.9844" r="1.02804" transform="rotate(-90 96.9782 84.9844)" fill="#5F5F5F"/>
<circle cx="96.9782" cy="96.9782" r="1.02804" transform="rotate(-90 96.9782 96.9782)" fill="#5F5F5F"/>
<circle cx="108.972" cy="108.972" r="1.02804" transform="rotate(-90 108.972 108.972)" fill="#5F5F5F"/>
<circle cx="108.972" cy="60.9969" r="1.02804" transform="rotate(-90 108.972 60.9969)" fill="#5F5F5F"/>
<circle cx="96.9782" cy="72.9906" r="1.02804" transform="rotate(-90 96.9782 72.9906)" fill="#5F5F5F"/>
<circle cx="108.972" cy="84.9844" r="1.02804" transform="rotate(-90 108.972 84.9844)" fill="#5F5F5F"/>
<circle cx="108.972" cy="96.9782" r="1.02804" transform="rotate(-90 108.972 96.9782)" fill="#5F5F5F"/>
<circle cx="120.966" cy="108.972" r="1.02804" transform="rotate(-90 120.966 108.972)" fill="#5F5F5F"/>
<circle cx="120.966" cy="60.9969" r="1.02804" transform="rotate(-90 120.966 60.9969)" fill="#5F5F5F"/>
<circle cx="120.966" cy="72.9906" r="1.02804" transform="rotate(-90 120.966 72.9906)" fill="#5F5F5F"/>
<circle cx="120.966" cy="84.9844" r="1.02804" transform="rotate(-90 120.966 84.9844)" fill="#5F5F5F"/>
<circle cx="120.966" cy="96.9782" r="1.02804" transform="rotate(-90 120.966 96.9782)" fill="#5F5F5F"/>
<circle cx="132.96" cy="108.972" r="1.02804" transform="rotate(-90 132.96 108.972)" fill="#5F5F5F"/>
<circle cx="132.96" cy="60.9969" r="1.02804" transform="rotate(-90 132.96 60.9969)" fill="#5F5F5F"/>
<circle cx="132.96" cy="72.9906" r="1.02804" transform="rotate(-90 132.96 72.9906)" fill="#5F5F5F"/>
<circle cx="132.96" cy="84.9844" r="1.02804" transform="rotate(-90 132.96 84.9844)" fill="#5F5F5F"/>
<circle cx="132.96" cy="96.9782" r="1.02804" transform="rotate(-90 132.96 96.9782)" fill="#5F5F5F"/>
<circle cx="144.953" cy="108.972" r="1.02804" transform="rotate(-90 144.953 108.972)" fill="#5F5F5F"/>
<circle cx="144.953" cy="60.9969" r="1.02804" transform="rotate(-90 144.953 60.9969)" fill="#5F5F5F"/>
<circle cx="144.953" cy="72.9906" r="1.02804" transform="rotate(-90 144.953 72.9906)" fill="#5F5F5F"/>
<circle cx="144.953" cy="84.9844" r="1.02804" transform="rotate(-90 144.953 84.9844)" fill="#5F5F5F"/>
<circle cx="144.953" cy="96.9782" r="1.02804" transform="rotate(-90 144.953 96.9782)" fill="#5F5F5F"/>
<circle cx="156.947" cy="108.972" r="1.02804" transform="rotate(-90 156.947 108.972)" fill="#5F5F5F"/>
<circle cx="156.947" cy="60.9969" r="1.02804" transform="rotate(-90 156.947 60.9969)" fill="#5F5F5F"/>
<circle cx="156.947" cy="72.9906" r="1.02804" transform="rotate(-90 156.947 72.9906)" fill="#5F5F5F"/>
<circle cx="156.947" cy="84.9844" r="1.02804" transform="rotate(-90 156.947 84.9844)" fill="#5F5F5F"/>
<circle cx="156.947" cy="96.9782" r="1.02804" transform="rotate(-90 156.947 96.9782)" fill="#5F5F5F"/>
<circle cx="84.9846" cy="49.0032" r="1.02804" transform="rotate(-90 84.9846 49.0032)" fill="#5F5F5F"/>
<circle cx="84.9846" cy="1.02805" r="1.02804" transform="rotate(-90 84.9846 1.02805)" fill="#5F5F5F"/>
<circle cx="84.9846" cy="13.0218" r="1.02804" transform="rotate(-90 84.9846 13.0218)" fill="#5F5F5F"/>
<circle cx="84.9846" cy="25.0156" r="1.02804" transform="rotate(-90 84.9846 25.0156)" fill="#5F5F5F"/>
<circle cx="84.9846" cy="37.0094" r="1.02804" transform="rotate(-90 84.9846 37.0094)" fill="#5F5F5F"/>
<circle cx="96.9782" cy="49.0032" r="1.02804" transform="rotate(-90 96.9782 49.0032)" fill="#5F5F5F"/>
<circle cx="96.9782" cy="1.02805" r="1.02804" transform="rotate(-90 96.9782 1.02805)" fill="#5F5F5F"/>
<circle cx="108.972" cy="13.0218" r="1.02804" transform="rotate(-90 108.972 13.0218)" fill="#5F5F5F"/>
<circle cx="96.9782" cy="25.0156" r="1.02804" transform="rotate(-90 96.9782 25.0156)" fill="#5F5F5F"/>
<circle cx="96.9782" cy="37.0094" r="1.02804" transform="rotate(-90 96.9782 37.0094)" fill="#5F5F5F"/>
<circle cx="108.972" cy="49.0032" r="1.02804" transform="rotate(-90 108.972 49.0032)" fill="#5F5F5F"/>
<circle cx="108.972" cy="1.02805" r="1.02804" transform="rotate(-90 108.972 1.02805)" fill="#5F5F5F"/>
<circle cx="96.9782" cy="13.0218" r="1.02804" transform="rotate(-90 96.9782 13.0218)" fill="#5F5F5F"/>
<circle cx="108.972" cy="25.0156" r="1.02804" transform="rotate(-90 108.972 25.0156)" fill="#5F5F5F"/>
<circle cx="108.972" cy="37.0094" r="1.02804" transform="rotate(-90 108.972 37.0094)" fill="#5F5F5F"/>
<circle cx="120.966" cy="49.0031" r="1.02804" transform="rotate(-90 120.966 49.0031)" fill="#5F5F5F"/>
<circle cx="120.966" cy="1.02805" r="1.02804" transform="rotate(-90 120.966 1.02805)" fill="#5F5F5F"/>
<circle cx="120.966" cy="13.0218" r="1.02804" transform="rotate(-90 120.966 13.0218)" fill="#5F5F5F"/>
<circle cx="120.966" cy="25.0156" r="1.02804" transform="rotate(-90 120.966 25.0156)" fill="#5F5F5F"/>
<circle cx="120.966" cy="37.0094" r="1.02804" transform="rotate(-90 120.966 37.0094)" fill="#5F5F5F"/>
<circle cx="132.96" cy="49.0031" r="1.02804" transform="rotate(-90 132.96 49.0031)" fill="#5F5F5F"/>
<circle cx="132.96" cy="1.02805" r="1.02804" transform="rotate(-90 132.96 1.02805)" fill="#5F5F5F"/>
<circle cx="132.96" cy="13.0218" r="1.02804" transform="rotate(-90 132.96 13.0218)" fill="#5F5F5F"/>
<circle cx="132.96" cy="25.0156" r="1.02804" transform="rotate(-90 132.96 25.0156)" fill="#5F5F5F"/>
<circle cx="132.96" cy="37.0094" r="1.02804" transform="rotate(-90 132.96 37.0094)" fill="#5F5F5F"/>
<circle cx="144.953" cy="49.0031" r="1.02804" transform="rotate(-90 144.953 49.0031)" fill="#5F5F5F"/>
<circle cx="144.953" cy="1.02805" r="1.02804" transform="rotate(-90 144.953 1.02805)" fill="#5F5F5F"/>
<circle cx="144.953" cy="13.0218" r="1.02804" transform="rotate(-90 144.953 13.0218)" fill="#5F5F5F"/>
<circle cx="144.953" cy="25.0156" r="1.02804" transform="rotate(-90 144.953 25.0156)" fill="#5F5F5F"/>
<circle cx="144.953" cy="37.0094" r="1.02804" transform="rotate(-90 144.953 37.0094)" fill="#5F5F5F"/>
<circle cx="156.947" cy="49.0031" r="1.02804" transform="rotate(-90 156.947 49.0031)" fill="#5F5F5F"/>
<circle cx="156.947" cy="1.02805" r="1.02804" transform="rotate(-90 156.947 1.02805)" fill="#5F5F5F"/>
<circle cx="156.947" cy="13.0218" r="1.02804" transform="rotate(-90 156.947 13.0218)" fill="#5F5F5F"/>
<circle cx="156.947" cy="25.0156" r="1.02804" transform="rotate(-90 156.947 25.0156)" fill="#5F5F5F"/>
<circle cx="156.947" cy="37.0094" r="1.02804" transform="rotate(-90 156.947 37.0094)" fill="#5F5F5F"/>
</g>
</svg>
