<?xml version="1.0" encoding="UTF-8" standalone="no"?><svg width="729" height="585" viewBox="0 0 729 585" fill="none" xmlns="http://www.w3.org/2000/svg">
<path d="M100.159 1092.49C181.682 1009.89 229.062 1056.65 310.586 974.053C392.109 891.451 344.729 844.689 426.228 762.111C507.728 679.533 555.132 726.271 636.655 643.669C718.179 561.067 670.798 514.306 752.321 431.704C833.845 349.102 881.225 395.864 962.772 313.238C1044.32 230.613 996.915 183.875 1078.44 101.273" stroke="#5F5F5F" stroke-opacity="0.35" stroke-width="2" stroke-miterlimit="10"/>
<path d="M391.785 1378.86C473.308 1296.26 520.689 1343.02 602.212 1260.42C683.735 1177.81 636.355 1131.05 717.855 1048.47C799.355 965.896 846.759 1012.63 928.282 930.032C1009.81 847.43 962.425 800.668 1043.95 718.066C1125.47 635.465 1172.85 682.226 1254.4 599.601C1335.95 516.975 1288.54 470.237 1370.06 387.635" stroke="#5F5F5F" stroke-opacity="0.35" stroke-width="2" stroke-miterlimit="10"/>
<path d="M243.466 1244.99C324.989 1162.39 372.37 1209.15 453.893 1126.55C535.416 1043.95 488.036 997.187 569.536 914.609C651.035 832.031 698.439 878.769 779.962 796.167C861.486 713.565 814.105 666.804 895.629 584.202C977.152 501.6 1024.53 548.362 1106.08 465.736C1187.63 383.111 1140.22 336.373 1221.75 253.771" stroke="#5F5F5F" stroke-opacity="0.35" stroke-width="2" stroke-miterlimit="10"/>
<path d="M80.3496 1065.49C161.873 982.889 209.253 1029.65 290.777 947.049C372.3 864.447 324.919 817.685 406.419 735.107C487.919 652.529 535.323 699.267 616.846 616.665C698.37 534.064 650.989 487.302 732.512 404.7C814.036 322.098 861.416 368.86 942.963 286.234C1024.51 203.609 977.106 156.871 1058.63 74.269" stroke="#5F5F5F" stroke-opacity="0.35" stroke-width="2" stroke-miterlimit="10"/>
<path d="M371.977 1351.85C453.5 1269.25 500.88 1316.01 582.404 1233.41C663.927 1150.81 616.546 1104.05 698.046 1021.47C779.546 938.892 826.95 985.63 908.473 903.028C989.997 820.426 942.616 773.664 1024.14 691.063C1105.66 608.461 1153.04 655.222 1234.59 572.597C1316.14 489.971 1268.73 443.233 1350.26 360.632" stroke="#5F5F5F" stroke-opacity="0.35" stroke-width="2" stroke-miterlimit="10"/>
<path d="M223.656 1217.99C305.18 1135.39 352.56 1182.15 434.083 1099.55C515.607 1016.95 468.226 970.183 549.726 887.605C631.226 805.027 678.63 851.765 760.153 769.163C841.676 686.562 794.296 639.8 875.819 557.198C957.342 474.596 1004.72 521.358 1086.27 438.732C1167.82 356.107 1120.41 309.369 1201.94 226.767" stroke="#5F5F5F" stroke-opacity="0.35" stroke-width="2" stroke-miterlimit="10"/>
<path d="M24.6899 1015.6C106.213 933.001 153.594 979.763 235.117 897.161C316.64 814.559 269.26 767.797 350.76 685.219C432.259 602.641 479.663 649.379 561.187 566.777C642.71 484.175 595.329 437.414 676.853 354.812C758.376 272.21 805.756 318.972 887.303 236.346C968.85 153.721 921.446 106.983 1002.97 24.3809" stroke="#5F5F5F" stroke-opacity="0.35" stroke-width="2" stroke-miterlimit="10"/>
<path d="M316.317 1311.69C397.84 1229.08 445.221 1275.85 526.744 1193.24C608.267 1110.64 560.887 1063.88 642.387 981.303C723.886 898.725 771.29 945.463 852.814 862.861C934.337 780.259 886.956 733.497 968.48 650.896C1050 568.294 1097.38 615.055 1178.93 532.43C1260.48 449.804 1213.07 403.066 1294.6 320.465" stroke="#5F5F5F" stroke-opacity="0.35" stroke-width="2" stroke-miterlimit="10"/>
<path d="M167.997 1168.1C249.52 1085.5 296.9 1132.26 378.424 1049.66C459.947 967.057 412.566 920.295 494.066 837.717C575.566 755.139 622.97 801.877 704.493 719.275C786.017 636.674 738.636 589.912 820.159 507.31C901.683 424.708 949.063 471.47 1030.61 388.844C1112.16 306.219 1064.75 259.481 1146.28 176.879" stroke="#5F5F5F" stroke-opacity="0.35" stroke-width="2" stroke-miterlimit="10"/>
<path d="M123.849 1115.88C205.372 1033.27 252.752 1080.04 334.276 997.433C415.799 914.832 368.418 868.07 449.918 785.492C531.418 702.914 578.822 749.652 660.345 667.05C741.869 584.448 694.488 537.686 776.011 455.085C857.535 372.483 904.915 419.245 986.462 336.619C1068.01 253.993 1020.6 207.255 1102.13 124.654" stroke="#5F5F5F" stroke-opacity="0.35" stroke-width="2" stroke-miterlimit="10"/>
<path d="M267.155 1268.37C348.679 1185.77 396.059 1232.53 477.582 1149.93C559.106 1067.33 511.725 1020.57 593.225 937.991C674.725 855.412 722.129 902.15 803.652 819.549C885.175 736.947 837.795 690.185 919.318 607.583C1000.84 524.981 1048.22 571.743 1129.77 489.118C1211.32 406.492 1163.91 359.754 1245.43 277.152" stroke="#5F5F5F" stroke-opacity="0.35" stroke-width="2" stroke-miterlimit="10"/>
<path d="M1 992.222C82.5233 909.62 129.904 956.382 211.427 873.78C292.95 791.178 245.57 744.416 327.07 661.838C408.57 579.26 455.973 625.998 537.497 543.396C619.02 460.794 571.64 414.033 653.163 331.431C734.686 248.829 782.067 295.591 863.613 212.965C945.16 130.34 897.756 83.6017 979.279 0.999914" stroke="#5F5F5F" stroke-opacity="0.35" stroke-width="2" stroke-miterlimit="10"/>
<path d="M292.627 1288.3C374.15 1205.7 421.531 1252.46 503.054 1169.86C584.577 1087.26 537.197 1040.5 618.697 957.921C700.196 875.343 747.6 922.081 829.124 839.48C910.647 756.878 863.266 710.116 944.79 627.514C1026.31 544.912 1073.69 591.674 1155.24 509.049C1236.79 426.423 1189.38 379.685 1270.91 297.083" stroke="#5F5F5F" stroke-opacity="0.35" stroke-width="2" stroke-miterlimit="10"/>
<path d="M144.307 1144.72C225.83 1062.12 273.21 1108.88 354.734 1026.28C436.257 943.676 388.877 896.914 470.376 814.336C551.876 731.758 599.28 778.496 680.803 695.894C762.327 613.293 714.946 566.531 796.469 483.929C877.993 401.327 925.373 448.089 1006.92 365.463C1088.47 282.838 1041.06 236.1 1122.59 153.498" stroke="#5F5F5F" stroke-opacity="0.35" stroke-width="2" stroke-miterlimit="10"/>
<path d="M56.6597 1042.11C138.183 959.508 185.563 1006.27 267.087 923.668C348.61 841.066 301.23 794.304 382.729 711.726C464.229 629.148 511.633 675.886 593.156 593.284C674.68 510.682 627.299 463.921 708.822 381.319C790.346 298.717 837.726 345.479 919.273 262.853C1000.82 180.228 953.416 133.49 1034.94 50.8877" stroke="#5F5F5F" stroke-opacity="0.35" stroke-width="2" stroke-miterlimit="10"/>
<path d="M348.287 1328.47C429.81 1245.87 477.19 1292.63 558.714 1210.03C640.237 1127.43 592.856 1080.67 674.356 998.089C755.856 915.511 803.26 962.248 884.783 879.647C966.307 797.045 918.926 750.283 1000.45 667.681C1081.97 585.08 1129.35 631.841 1210.9 549.216C1292.45 466.59 1245.04 419.852 1326.57 337.25" stroke="#5F5F5F" stroke-opacity="0.35" stroke-width="2" stroke-miterlimit="10"/>
<path d="M199.966 1194.61C281.49 1112.01 328.87 1158.77 410.393 1076.17C491.917 993.564 444.536 946.802 526.036 864.224C607.536 781.646 654.94 828.384 736.463 745.782C817.986 663.181 770.606 616.419 852.129 533.817C933.652 451.215 981.033 497.977 1062.58 415.351C1144.13 332.726 1096.72 285.988 1178.25 203.386" stroke="#5F5F5F" stroke-opacity="0.35" stroke-width="2" stroke-miterlimit="10"/>
</svg>
